<svg xmlns="http://www.w3.org/2000/svg" width="980" height="420" viewBox="0 0 980 420">
  <rect width="100%" height="100%" fill="#ffffff"/>
  <text x="70" y="22" font-size="18" font-family="Arial, sans-serif" fill="#162a2c">HL5 reward evolution through episode 8</text>
  <g font-family="Arial, sans-serif">
    <line x1="70" y1="355.0" x2="950" y2="355.0" stroke="#e3e8e8"/><text x="58" y="359.0" text-anchor="end" font-size="12" fill="#4d5c5e">0.00</text><line x1="70" y1="273.8" x2="950" y2="273.8" stroke="#e3e8e8"/><text x="58" y="277.8" text-anchor="end" font-size="12" fill="#4d5c5e">0.25</text><line x1="70" y1="192.5" x2="950" y2="192.5" stroke="#e3e8e8"/><text x="58" y="196.5" text-anchor="end" font-size="12" fill="#4d5c5e">0.50</text><line x1="70" y1="111.2" x2="950" y2="111.2" stroke="#e3e8e8"/><text x="58" y="115.2" text-anchor="end" font-size="12" fill="#4d5c5e">0.75</text><line x1="70" y1="30.0" x2="950" y2="30.0" stroke="#e3e8e8"/><text x="58" y="34.0" text-anchor="end" font-size="12" fill="#4d5c5e">1.00</text>
    <line x1="146.5" y1="30" x2="146.5" y2="355" stroke="#b9c6c7" stroke-dasharray="4 5"/><text x="146.5" y="395" text-anchor="middle" font-size="11" fill="#59686a">u0001</text><line x1="261.3" y1="30" x2="261.3" y2="355" stroke="#b9c6c7" stroke-dasharray="4 5"/><text x="261.3" y="395" text-anchor="middle" font-size="11" fill="#59686a">u0002</text><line x1="376.1" y1="30" x2="376.1" y2="355" stroke="#b9c6c7" stroke-dasharray="4 5"/><text x="376.1" y="395" text-anchor="middle" font-size="11" fill="#59686a">u0003</text><line x1="490.9" y1="30" x2="490.9" y2="355" stroke="#b9c6c7" stroke-dasharray="4 5"/><text x="490.9" y="395" text-anchor="middle" font-size="11" fill="#59686a">u0004</text><line x1="605.7" y1="30" x2="605.7" y2="355" stroke="#b9c6c7" stroke-dasharray="4 5"/><text x="605.7" y="395" text-anchor="middle" font-size="11" fill="#59686a">u0005</text><line x1="720.4" y1="30" x2="720.4" y2="355" stroke="#b9c6c7" stroke-dasharray="4 5"/><text x="720.4" y="395" text-anchor="middle" font-size="11" fill="#59686a">u0006</text><line x1="835.2" y1="30" x2="835.2" y2="355" stroke="#b9c6c7" stroke-dasharray="4 5"/><text x="835.2" y="395" text-anchor="middle" font-size="11" fill="#59686a">u0007</text><line x1="950.0" y1="30" x2="950.0" y2="355" stroke="#b9c6c7" stroke-dasharray="4 5"/><text x="950.0" y="395" text-anchor="middle" font-size="11" fill="#59686a">u0008</text>
    <line x1="70" y1="355" x2="950" y2="355" stroke="#34484a"/>
    <line x1="70" y1="30" x2="70" y2="355" stroke="#34484a"/>
    <polyline points="70.0,169.3 108.3,215.7 146.5,122.9 184.8,262.1 223.0,262.1 261.3,76.4 299.6,169.3 337.8,122.9 376.1,169.3 414.3,215.7 452.6,169.3 490.9,76.4 529.1,122.9 567.4,76.4 605.7,169.3 643.9,169.3 682.2,308.6 720.4,215.7 758.7,215.7 797.0,169.3 835.2,215.7 873.5,215.7 911.7,215.7 950.0,215.7" fill="none" stroke="#2f6f73" stroke-width="2.5"/>
    <circle cx="70.0" cy="169.3" r="4" fill="#2f6f73"/><text x="70.0" y="161.3" text-anchor="middle" font-size="10" fill="#243b3d">0.571</text><circle cx="108.3" cy="215.7" r="4" fill="#2f6f73"/><text x="108.3" y="207.7" text-anchor="middle" font-size="10" fill="#243b3d">0.429</text><circle cx="146.5" cy="122.9" r="4" fill="#2f6f73"/><text x="146.5" y="114.9" text-anchor="middle" font-size="10" fill="#243b3d">0.714</text><circle cx="184.8" cy="262.1" r="4" fill="#2f6f73"/><text x="184.8" y="254.1" text-anchor="middle" font-size="10" fill="#243b3d">0.286</text><circle cx="223.0" cy="262.1" r="4" fill="#2f6f73"/><text x="223.0" y="254.1" text-anchor="middle" font-size="10" fill="#243b3d">0.286</text><circle cx="261.3" cy="76.4" r="4" fill="#2f6f73"/><text x="261.3" y="68.4" text-anchor="middle" font-size="10" fill="#243b3d">0.857</text><circle cx="299.6" cy="169.3" r="4" fill="#2f6f73"/><text x="299.6" y="161.3" text-anchor="middle" font-size="10" fill="#243b3d">0.571</text><circle cx="337.8" cy="122.9" r="4" fill="#2f6f73"/><text x="337.8" y="114.9" text-anchor="middle" font-size="10" fill="#243b3d">0.714</text><circle cx="376.1" cy="169.3" r="4" fill="#2f6f73"/><text x="376.1" y="161.3" text-anchor="middle" font-size="10" fill="#243b3d">0.571</text><circle cx="414.3" cy="215.7" r="4" fill="#2f6f73"/><text x="414.3" y="207.7" text-anchor="middle" font-size="10" fill="#243b3d">0.429</text><circle cx="452.6" cy="169.3" r="4" fill="#2f6f73"/><text x="452.6" y="161.3" text-anchor="middle" font-size="10" fill="#243b3d">0.571</text><circle cx="490.9" cy="76.4" r="4" fill="#2f6f73"/><text x="490.9" y="68.4" text-anchor="middle" font-size="10" fill="#243b3d">0.857</text><circle cx="529.1" cy="122.9" r="4" fill="#2f6f73"/><text x="529.1" y="114.9" text-anchor="middle" font-size="10" fill="#243b3d">0.714</text><circle cx="567.4" cy="76.4" r="4" fill="#2f6f73"/><text x="567.4" y="68.4" text-anchor="middle" font-size="10" fill="#243b3d">0.857</text><circle cx="605.7" cy="169.3" r="4" fill="#2f6f73"/><text x="605.7" y="161.3" text-anchor="middle" font-size="10" fill="#243b3d">0.571</text><circle cx="643.9" cy="169.3" r="4" fill="#2f6f73"/><text x="643.9" y="161.3" text-anchor="middle" font-size="10" fill="#243b3d">0.571</text><circle cx="682.2" cy="308.6" r="4" fill="#2f6f73"/><text x="682.2" y="300.6" text-anchor="middle" font-size="10" fill="#243b3d">0.143</text><circle cx="720.4" cy="215.7" r="4" fill="#2f6f73"/><text x="720.4" y="207.7" text-anchor="middle" font-size="10" fill="#243b3d">0.429</text><circle cx="758.7" cy="215.7" r="4" fill="#2f6f73"/><text x="758.7" y="207.7" text-anchor="middle" font-size="10" fill="#243b3d">0.429</text><circle cx="797.0" cy="169.3" r="4" fill="#2f6f73"/><text x="797.0" y="161.3" text-anchor="middle" font-size="10" fill="#243b3d">0.571</text><circle cx="835.2" cy="215.7" r="4" fill="#2f6f73"/><text x="835.2" y="207.7" text-anchor="middle" font-size="10" fill="#243b3d">0.429</text><circle cx="873.5" cy="215.7" r="4" fill="#2f6f73"/><text x="873.5" y="207.7" text-anchor="middle" font-size="10" fill="#243b3d">0.429</text><circle cx="911.7" cy="215.7" r="4" fill="#2f6f73"/><text x="911.7" y="207.7" text-anchor="middle" font-size="10" fill="#243b3d">0.429</text><circle cx="950.0" cy="215.7" r="4" fill="#2f6f73"/><text x="950.0" y="207.7" text-anchor="middle" font-size="10" fill="#243b3d">0.429</text>
    <text x="490.0" y="415" text-anchor="middle" font-size="12" fill="#34484a">Point (three points per episode); checkpoint labels mark published harness updates</text>
    <text transform="translate(18 210.0) rotate(-90)" text-anchor="middle" font-size="12" fill="#34484a">Reward mean</text>
  </g>
</svg>
